<svg aria-hidden="true" style="position: absolute; width: 0; height: 0; overflow: hidden;" version="1.1" xmlns="http://www.w3.org/2000/svg" xmlns:xlink="http://www.w3.org/1999/xlink">
<defs>

<!-- Navbar Icons -->
<!-- Menu Icon -->
<symbol id="icon-menu" viewBox="0 0 32 32">
<path d="M14.4 9.6h16c0.424 0 0.831-0.169 1.131-0.469s0.469-0.707 0.469-1.131c0-0.424-0.169-0.831-0.469-1.131s-0.707-0.469-1.131-0.469h-16c-0.424 0-0.831 0.169-1.131 0.469s-0.469 0.707-0.469 1.131c0 0.424 0.169 0.831 0.469 1.131s0.707 0.469 1.131 0.469zM30.4 22.4h-28.8c-0.424 0-0.831 0.169-1.131 0.469s-0.469 0.707-0.469 1.131c0 0.424 0.169 0.831 0.469 1.131s0.707 0.469 1.131 0.469h28.8c0.424 0 0.831-0.169 1.131-0.469s0.469-0.707 0.469-1.131c0-0.424-0.169-0.831-0.469-1.131s-0.707-0.469-1.131-0.469v0zM1.6 17.6h28.8c0.424 0 0.831-0.169 1.131-0.469s0.469-0.707 0.469-1.131c0-0.424-0.169-0.831-0.469-1.131s-0.707-0.469-1.131-0.469h-28.8c-0.424 0-0.831 0.169-1.131 0.469s-0.469 0.707-0.469 1.131c0 0.424 0.169 0.831 0.469 1.131s0.707 0.469 1.131 0.469z"></path>
</symbol>

<!-- Close Ison -->
<symbol id="icon-close" viewBox="0 0 32 32">
<path d="M18.506 16l11.2-11.182c0.335-0.335 0.523-0.789 0.523-1.262s-0.188-0.927-0.523-1.262c-0.335-0.335-0.789-0.523-1.262-0.523s-0.927 0.188-1.262 0.523l-11.182 11.2-11.182-11.2c-0.335-0.335-0.789-0.523-1.262-0.523s-0.927 0.188-1.262 0.523c-0.335 0.335-0.523 0.789-0.523 1.262s0.188 0.927 0.523 1.262l11.2 11.182-11.2 11.182c-0.167 0.165-0.299 0.362-0.389 0.579s-0.137 0.449-0.137 0.684 0.046 0.467 0.137 0.684c0.090 0.217 0.223 0.413 0.389 0.578 0.165 0.167 0.362 0.299 0.579 0.389s0.449 0.137 0.684 0.137c0.235 0 0.467-0.046 0.684-0.137s0.413-0.223 0.579-0.389l11.182-11.2 11.182 11.2c0.165 0.167 0.362 0.299 0.579 0.389s0.449 0.137 0.684 0.137c0.235 0 0.467-0.046 0.684-0.137s0.413-0.223 0.579-0.389c0.167-0.165 0.299-0.362 0.389-0.578s0.137-0.449 0.137-0.684-0.046-0.467-0.137-0.684c-0.090-0.217-0.222-0.413-0.389-0.578l-11.2-11.182z"></path>
</symbol>

<!-- Share Arrow Icon -->
<symbol id="icon-arrow-up" viewBox="0 0 32 32">
<path d="M11.28 8.4c-0.265 0-0.52 0.105-0.707 0.293s-0.293 0.442-0.293 0.707c0 0.265 0.105 0.52 0.293 0.707s0.442 0.293 0.707 0.293h8.907l-11.493 11.493c-0.098 0.091-0.177 0.202-0.232 0.325s-0.084 0.255-0.086 0.389 0.022 0.268 0.073 0.392c0.050 0.125 0.125 0.238 0.22 0.333s0.208 0.17 0.333 0.22c0.125 0.050 0.258 0.075 0.392 0.073s0.267-0.032 0.389-0.086c0.123-0.055 0.233-0.133 0.325-0.232l11.493-11.493v8.907c0 0.265 0.105 0.52 0.293 0.707s0.442 0.293 0.707 0.293 0.52-0.105 0.707-0.293c0.188-0.187 0.293-0.442 0.293-0.707v-11.32c-0.001-0.133-0.028-0.264-0.080-0.387-0.073-0.17-0.191-0.318-0.341-0.426s-0.328-0.173-0.512-0.187h-11.387z"></path>
</symbol>

<!-- End of Navbar Icons -->

<!-- Advantage Component -->
<!-- Shield Icon -->
<symbol id="icon-shield" viewBox="0 0 32 32">
<path d="M15.565 31.862l-5.762-2.981c-1.637-0.849-2.915-1.8-3.914-2.907-2.186-2.422-3.4-5.532-3.421-8.758l-0.068-10.617c-0.006-1.225 0.783-2.325 1.965-2.738l10.58-3.69c0.628-0.223 1.329-0.228 1.968-0.011l10.62 3.563c1.189 0.397 1.993 1.489 1.999 2.713l0.068 10.625c0.021 3.221-1.153 6.345-3.304 8.793-0.989 1.123-2.257 2.088-3.875 2.951l-5.709 3.052c-0.179 0.094-0.375 0.143-0.573 0.144s-0.396-0.046-0.573-0.138zM14.054 19.374c0.238 0.229 0.548 0.342 0.857 0.339 0.309-0.002 0.617-0.118 0.852-0.35l6.239-6.15c0.469-0.463 0.464-1.207-0.010-1.663-0.475-0.457-1.24-0.453-1.709 0.009l-5.39 5.312-2.207-2.121c-0.475-0.457-1.239-0.452-1.709 0.011-0.469 0.463-0.464 1.207 0.011 1.663l3.065 2.95z"></path>
</symbol>

<!-- Support Icon -->
<symbol id="icon-support" viewBox="0 0 32 32">
<path d="M29.502 29.505l-0.682-2.004c-1.28-3.769-4.745-6.338-8.693-6.507-0.348 0.27-0.714 0.502-1.093 0.705-0.566 1.486-2.468 1.889-3.582 0.751-1.318-0.116-2.525-0.637-3.579-1.455-3.948 0.168-7.413 2.737-8.693 6.507l-0.68 2.004c-0.197 0.576-0.102 1.212 0.253 1.706 0.354 0.495 0.926 0.789 1.535 0.789h23.427c0.608 0 1.181-0.293 1.535-0.789s0.449-1.13 0.254-1.706z"></path>
<path d="M18.608 19.47c2.292-1.611 3.895-5.169 3.895-8.608 0-9.775-13.006-9.764-13.006 0 0 4.18 2.367 8.529 5.463 9.349 0.299-0.846 1.098-1.458 2.044-1.458 0.637-0 1.205 0.279 1.603 0.716z"></path>
<path d="M6.644 14.942c0.322 1.267 2.080 0.918 2.080-0.255 0-4.702 0.225-5.141-0.405-5.651 1.441-8.879 13.853-8.812 15.363 0.001-0.628 0.512-0.404 0.949-0.404 5.65 0 0.368 0.198 0.676 0.482 0.868 0 3.657-1.484 3.444-5.945 4.626-0.69-0.749-1.922-0.261-1.922 0.749 0 1.265 1.812 1.561 2.164 0.289 3.602-0.955 6.768-1.256 6.768-4.856v-0.739c0.267-0.138 0.457-0.384 0.533-0.682 3.472-0.071 3.473-5.274 0-5.344-0.072-0.284-0.249-0.516-0.497-0.658 0.090-1.065-0.13-2.466-0.741-3.818-4.248-8.765-16.794-5.336-16.99 3.159-0.027 0.288-0.005 0.492 0.011 0.659-0.249 0.142-0.425 0.373-0.497 0.658-1.454 0.028-2.627 1.212-2.627 2.672s1.173 2.644 2.627 2.672z"></path>
</symbol>

<!-- Sales Icon -->
<symbol id="icon-sales" viewBox="0 0 32 32">
<path d="M28.945 11.793l-0.001-5.199-4.947-1.604-3.052-4.21-4.945 1.613-4.945-1.613-3.052 4.21-4.947 1.604-0.001 5.199-3.055 4.206 3.055 4.206 0.001 5.199 4.947 1.604 3.052 4.21 4.945-1.613 4.945 1.613 3.052-4.21 4.947-1.604 0.001-5.199 3.055-4.206-3.055-4.207zM10.425 14.518c-0.533-0.537-0.831-1.212-0.831-2.027v-0.729c0-0.821 0.296-1.501 0.826-2.041s1.3-0.809 2.279-0.809c0.991 0 1.738 0.27 2.268 0.809s0.781 1.22 0.781 2.041v0.729c0 0.821-0.243 1.498-0.774 2.031s-1.289 0.8-2.267 0.8c-0.985 0-1.748-0.268-2.282-0.805zM13.235 21.866l-1.487-0.748 6.733-10.776 1.487 0.748-6.733 10.776zM22.334 20.247c0 0.827-0.258 1.507-0.785 2.041s-1.277 0.8-2.256 0.8c-0.985 0-1.755-0.268-2.295-0.805s-0.818-1.215-0.818-2.036v-0.729c0-0.814 0.278-1.491 0.814-2.031s1.299-0.81 2.277-0.81c0.991 0 1.747 0.268 2.274 0.805s0.788 1.215 0.788 2.036v0.729z"></path>
<path d="M13.457 13.275c0.174-0.21 0.24-0.472 0.24-0.786v-0.725c0-0.313-0.069-0.578-0.245-0.795s-0.419-0.325-0.748-0.325c-0.322 0-0.594 0.108-0.771 0.325s-0.288 0.481-0.288 0.795v0.725c0 0.314 0.116 0.576 0.293 0.786s0.436 0.315 0.771 0.315c0.322 0 0.573-0.105 0.747-0.315z"></path>
<path d="M19.276 18.41c-0.328 0-0.592 0.108-0.769 0.325s-0.277 0.478-0.277 0.786v0.724c0 0.301 0.112 0.561 0.314 0.781s0.454 0.329 0.744 0.329c0.391 0 0.651-0.097 0.79-0.292s0.203-0.467 0.203-0.819v-0.724c0-0.307-0.081-0.569-0.261-0.786s-0.423-0.325-0.744-0.325z"></path>
</symbol>

<!-- Target Icon -->
<symbol id="icon-target" viewBox="0 0 32 32">
<path d="M29.333 16c0 7.364-5.97 13.333-13.333 13.333s-13.333-5.97-13.333-13.333c0-7.364 5.97-13.333 13.333-13.333v0c0.736 0 1.333 0.597 1.333 1.333s-0.597 1.333-1.333 1.333v0c-5.891 0-10.667 4.776-10.667 10.667s4.776 10.667 10.667 10.667c5.891 0 10.667-4.776 10.667-10.667v0c0-0.736 0.597-1.333 1.333-1.333s1.333 0.597 1.333 1.333v0zM16 12c0.736 0 1.333-0.597 1.333-1.333s-0.597-1.333-1.333-1.333v0c-3.682 0-6.667 2.985-6.667 6.667s2.985 6.667 6.667 6.667c3.682 0 6.667-2.985 6.667-6.667v0c0-0.736-0.597-1.333-1.333-1.333s-1.333 0.597-1.333 1.333v0c0 2.209-1.791 4-4 4s-4-1.791-4-4c0-2.209 1.791-4 4-4v0zM15.053 16.947c0.242 0.244 0.577 0.394 0.947 0.394s0.705-0.151 0.947-0.394l0-0 4.933-4.947h3.453c0.002 0 0.005 0 0.008 0 0.366 0 0.698-0.148 0.939-0.387l2.667-2.667c0.248-0.242 0.403-0.581 0.403-0.955 0-0.072-0.006-0.144-0.017-0.213l0.001 0.008c-0.074-0.429-0.344-0.783-0.712-0.97l-0.008-0.003-2.267-1.147-1.147-2.267c-0.19-0.385-0.55-0.661-0.979-0.732l-0.008-0.001c-0.065-0.011-0.14-0.018-0.217-0.018-0.368 0-0.702 0.149-0.943 0.391v0l-2.667 2.667c-0.239 0.241-0.387 0.573-0.387 0.939 0 0.007 0 0.015 0 0.022v-0.001 3.453l-4.947 4.933c-0.244 0.242-0.394 0.577-0.394 0.947s0.151 0.705 0.394 0.947l0 0z"></path>
</symbol>

<!-- End of Advantage Component -->

<!-- About Component -->

<symbol id="icon-star" viewBox="0 0 32 32">
<path d="M17.545 1.659l3.609 7.313c0.251 0.509 0.736 0.861 1.298 0.943l8.071 1.173c1.414 0.206 1.978 1.942 0.955 2.939l-5.84 5.692c-0.406 0.396-0.591 0.967-0.495 1.525l1.378 8.038c0.242 1.408-1.236 2.481-2.5 1.817l-7.218-3.795c-0.502-0.264-1.102-0.264-1.604 0l-7.218 3.795c-1.264 0.665-2.742-0.409-2.5-1.817l1.378-8.038c0.096-0.559-0.089-1.129-0.495-1.525l-5.84-5.692c-1.023-0.997-0.459-2.734 0.955-2.939l8.071-1.173c0.561-0.081 1.047-0.434 1.298-0.943l3.609-7.313c0.631-1.281 2.458-1.281 3.090 0z"></path>
</symbol>

<!-- End of the About Component -->

<!-- Footer Icons -->
<!-- Instagram Icon -->
<symbol id="icon-instagram" viewBox="0 0 32 32">
<path d="M15.91 6c-9.191 0-9.91 0.72-9.91 9.91v0.18c0 9.191 0.72 9.91 9.91 9.91h0.18c9.191 0 9.91-0.72 9.91-9.91v-0.090c0-9.274-0.726-10-10-10h-0.090zM14 8h4c5.564 0 6 0.435 6 6v4c0 5.564-0.436 6-6 6h-4c-5.564 0-6-0.436-6-6v-4c0-5.564 0.435-6 6-6zM20.997 10c-0.552 0.002-0.999 0.45-0.997 1.003s0.45 0.999 1.003 0.997c0.552-0.002 0.999-0.45 0.997-1.003s-0.45-0.999-1.003-0.997zM15.988 11c-2.761 0.007-4.995 2.251-4.988 5.012s2.251 4.995 5.012 4.988c2.761-0.006 4.995-2.251 4.988-5.012s-2.251-4.995-5.012-4.988zM15.993 13c1.656-0.004 3.003 1.337 3.007 2.993s-1.337 3.003-2.993 3.007-3.003-1.336-3.007-2.993c-0.004-1.656 1.337-3.003 2.993-3.007z"></path>
</symbol>

<!-- Facebook Icon -->
<symbol id="icon-facebook" viewBox="0 0 32 32">
<path d="M20.48 7.040h3.2c0.353 0 0.64-0.287 0.64-0.64v-4.312c0-0.335-0.258-0.614-0.592-0.638-1.018-0.072-3.007-0.17-4.438-0.17-3.93 0-6.49 2.355-6.49 6.636v4.244h-4.48c-0.353 0-0.64 0.287-0.64 0.64v4.48c0 0.353 0.287 0.64 0.64 0.64h4.48v12.16c0 0.353 0.287 0.64 0.64 0.64h4.48c0.353 0 0.64-0.287 0.64-0.64v-12.16h4.622c0.326 0 0.6-0.245 0.636-0.57l0.498-4.48c0.042-0.379-0.255-0.71-0.636-0.71h-5.12v-3.2c0-1.060 0.86-1.92 1.92-1.92z"></path>
</symbol>

<!-- Twitter Icon -->
<symbol id="icon-twitter" viewBox="0 0 32 32">
<path d="M32 5.912c-1.19 0.531-2.458 0.883-3.78 1.053 1.36-0.826 2.398-2.123 2.886-3.687-1.268 0.769-2.668 1.312-4.16 1.615-1.204-1.303-2.92-2.111-4.792-2.111-3.632 0-6.556 2.997-6.556 6.672 0 0.529 0.044 1.037 0.152 1.521-5.454-0.27-10.28-2.928-13.522-6.977-0.566 0.998-0.898 2.141-0.898 3.371 0 2.31 1.17 4.358 2.914 5.543-1.054-0.020-2.088-0.331-2.964-0.822 0 0.020 0 0.047 0 0.073 0 3.241 2.274 5.934 5.256 6.554-0.534 0.148-1.116 0.22-1.72 0.22-0.42 0-0.844-0.024-1.242-0.114 0.85 2.641 3.262 4.583 6.13 4.646-2.232 1.775-5.066 2.845-8.134 2.845-0.538 0-1.054-0.024-1.57-0.092 2.906 1.905 6.35 2.993 10.064 2.993 12.072 0 18.672-10.167 18.672-18.98 0-0.295-0.010-0.58-0.024-0.862 1.302-0.939 2.396-2.113 3.288-3.463z"></path>
</symbol>

<!-- Linkedin Icon -->
<symbol id="icon-linkedin" viewBox="0 0 32 32">
<path d="M8.643 4c-1.459 0-2.643 1.182-2.643 2.641s1.183 2.668 2.641 2.668c1.458 0 2.643-1.209 2.643-2.668s-1.182-2.641-2.641-2.641zM21.535 11c-2.219 0-3.489 1.16-4.098 2.314h-0.064v-2.004h-4.373v14.689h4.557v-7.271c0-1.916 0.145-3.768 2.516-3.768 2.337 0 2.371 2.185 2.371 3.889v7.15h4.557v-8.068c0-3.948-0.849-6.932-5.465-6.932zM6.363 11.311v14.689h4.561v-14.689h-4.561z"></path>
</symbol>

</defs>
</svg>
